<mxfile host="app.diagrams.net" modified="2022-12-15T09:30:22.933Z" agent="5.0 (Macintosh; Intel Mac OS X 10_15_7) AppleWebKit/537.36 (KHTML, like Gecko) Chrome/108.0.0.0 Safari/537.36" etag="oHIhTX1oxgEBmrl9NxCY" version="20.6.2" type="github">
  <diagram id="R2lEEEUBdFMjLlhIrx00" name="Page-1">
    <mxGraphModel dx="4019" dy="1780" grid="1" gridSize="10" guides="1" tooltips="1" connect="1" arrows="1" fold="1" page="1" pageScale="1" pageWidth="850" pageHeight="1100" math="0" shadow="0" extFonts="Permanent Marker^https://fonts.googleapis.com/css?family=Permanent+Marker">
      <root>
        <mxCell id="0" />
        <mxCell id="1" parent="0" />
        <mxCell id="C-vyLk0tnHw3VtMMgP7b-2" value="SEGMENTATION" style="shape=table;startSize=30;container=1;collapsible=1;childLayout=tableLayout;fixedRows=1;rowLines=0;fontStyle=1;align=left;resizeLast=1;strokeWidth=1;fillOpacity=0;" parent="1" vertex="1">
          <mxGeometry x="1160" y="80" width="350" height="160" as="geometry">
            <mxRectangle x="450" y="120" width="140" height="30" as="alternateBounds" />
          </mxGeometry>
        </mxCell>
        <mxCell id="C-vyLk0tnHw3VtMMgP7b-3" value="" style="shape=partialRectangle;collapsible=0;dropTarget=0;pointerEvents=0;points=[[0,0.5],[1,0.5]];portConstraint=eastwest;top=0;left=0;right=0;bottom=1;strokeWidth=1;startSize=30;fontStyle=1;align=left;fillOpacity=0;" parent="C-vyLk0tnHw3VtMMgP7b-2" vertex="1">
          <mxGeometry y="30" width="350" height="30" as="geometry" />
        </mxCell>
        <mxCell id="C-vyLk0tnHw3VtMMgP7b-4" value="PK" style="shape=partialRectangle;overflow=hidden;connectable=0;top=0;left=0;bottom=0;right=0;fontStyle=1;strokeWidth=1;startSize=30;align=left;fillOpacity=0;" parent="C-vyLk0tnHw3VtMMgP7b-3" vertex="1">
          <mxGeometry width="30" height="30" as="geometry">
            <mxRectangle width="30" height="30" as="alternateBounds" />
          </mxGeometry>
        </mxCell>
        <mxCell id="C-vyLk0tnHw3VtMMgP7b-5" value="segmentation_id int NOT NULL " style="shape=partialRectangle;overflow=hidden;connectable=0;top=0;left=0;bottom=0;right=0;align=left;spacingLeft=6;fontStyle=1;strokeWidth=1;startSize=30;fillOpacity=0;" parent="C-vyLk0tnHw3VtMMgP7b-3" vertex="1">
          <mxGeometry x="30" width="320" height="30" as="geometry">
            <mxRectangle width="320" height="30" as="alternateBounds" />
          </mxGeometry>
        </mxCell>
        <mxCell id="C-vyLk0tnHw3VtMMgP7b-9" value="" style="shape=partialRectangle;collapsible=0;dropTarget=0;pointerEvents=0;points=[[0,0.5],[1,0.5]];portConstraint=eastwest;top=0;left=0;right=0;bottom=0;strokeWidth=1;startSize=30;fontStyle=1;align=left;fillOpacity=0;" parent="C-vyLk0tnHw3VtMMgP7b-2" vertex="1">
          <mxGeometry y="60" width="350" height="30" as="geometry" />
        </mxCell>
        <mxCell id="C-vyLk0tnHw3VtMMgP7b-10" value="" style="shape=partialRectangle;overflow=hidden;connectable=0;top=0;left=0;bottom=0;right=0;strokeWidth=1;startSize=30;fontStyle=1;align=left;fillOpacity=0;" parent="C-vyLk0tnHw3VtMMgP7b-9" vertex="1">
          <mxGeometry width="30" height="30" as="geometry">
            <mxRectangle width="30" height="30" as="alternateBounds" />
          </mxGeometry>
        </mxCell>
        <mxCell id="C-vyLk0tnHw3VtMMgP7b-11" value="path string" style="shape=partialRectangle;overflow=hidden;connectable=0;top=0;left=0;bottom=0;right=0;align=left;spacingLeft=6;strokeWidth=1;startSize=30;fontStyle=1;fillOpacity=0;" parent="C-vyLk0tnHw3VtMMgP7b-9" vertex="1">
          <mxGeometry x="30" width="320" height="30" as="geometry">
            <mxRectangle width="320" height="30" as="alternateBounds" />
          </mxGeometry>
        </mxCell>
        <mxCell id="N7TVtfNPH1mrvqPcN6rD-39" value="" style="shape=partialRectangle;collapsible=0;dropTarget=0;pointerEvents=0;points=[[0,0.5],[1,0.5]];portConstraint=eastwest;top=0;left=0;right=0;bottom=0;strokeWidth=1;startSize=30;fontStyle=1;align=left;fillOpacity=0;" parent="C-vyLk0tnHw3VtMMgP7b-2" vertex="1">
          <mxGeometry y="90" width="350" height="30" as="geometry" />
        </mxCell>
        <mxCell id="N7TVtfNPH1mrvqPcN6rD-40" value="" style="shape=partialRectangle;overflow=hidden;connectable=0;top=0;left=0;bottom=0;right=0;strokeWidth=1;startSize=30;fontStyle=1;align=left;fillOpacity=0;" parent="N7TVtfNPH1mrvqPcN6rD-39" vertex="1">
          <mxGeometry width="30" height="30" as="geometry">
            <mxRectangle width="30" height="30" as="alternateBounds" />
          </mxGeometry>
        </mxCell>
        <mxCell id="N7TVtfNPH1mrvqPcN6rD-41" value="storage string" style="shape=partialRectangle;overflow=hidden;connectable=0;top=0;left=0;bottom=0;right=0;align=left;spacingLeft=6;strokeWidth=1;startSize=30;fontStyle=1;fillOpacity=0;" parent="N7TVtfNPH1mrvqPcN6rD-39" vertex="1">
          <mxGeometry x="30" width="320" height="30" as="geometry">
            <mxRectangle width="320" height="30" as="alternateBounds" />
          </mxGeometry>
        </mxCell>
        <mxCell id="N7TVtfNPH1mrvqPcN6rD-138" value="" style="shape=tableRow;horizontal=0;startSize=0;swimlaneHead=0;swimlaneBody=0;collapsible=0;dropTarget=0;points=[[0,0.5],[1,0.5]];portConstraint=eastwest;top=0;left=0;right=0;bottom=0;strokeWidth=1;fontStyle=1;align=left;fillOpacity=0;" parent="C-vyLk0tnHw3VtMMgP7b-2" vertex="1">
          <mxGeometry y="120" width="350" height="30" as="geometry" />
        </mxCell>
        <mxCell id="N7TVtfNPH1mrvqPcN6rD-139" value="" style="shape=partialRectangle;connectable=0;top=0;left=0;bottom=0;right=0;editable=1;overflow=hidden;strokeWidth=1;startSize=30;fontStyle=1;align=left;fillOpacity=0;" parent="N7TVtfNPH1mrvqPcN6rD-138" vertex="1">
          <mxGeometry width="30" height="30" as="geometry">
            <mxRectangle width="30" height="30" as="alternateBounds" />
          </mxGeometry>
        </mxCell>
        <mxCell id="N7TVtfNPH1mrvqPcN6rD-140" value="create_date date" style="shape=partialRectangle;connectable=0;top=0;left=0;bottom=0;right=0;align=left;spacingLeft=6;overflow=hidden;strokeWidth=1;startSize=30;fontStyle=1;fillOpacity=0;" parent="N7TVtfNPH1mrvqPcN6rD-138" vertex="1">
          <mxGeometry x="30" width="320" height="30" as="geometry">
            <mxRectangle width="320" height="30" as="alternateBounds" />
          </mxGeometry>
        </mxCell>
        <mxCell id="C-vyLk0tnHw3VtMMgP7b-23" value="CAMERAS" style="shape=table;startSize=30;container=1;collapsible=1;childLayout=tableLayout;fixedRows=1;rowLines=0;fontStyle=1;align=left;resizeLast=1;strokeWidth=1;fillOpacity=0;" parent="1" vertex="1">
          <mxGeometry x="390" y="80" width="250" height="490" as="geometry">
            <mxRectangle x="120" y="120" width="100" height="30" as="alternateBounds" />
          </mxGeometry>
        </mxCell>
        <mxCell id="C-vyLk0tnHw3VtMMgP7b-24" value="" style="shape=partialRectangle;collapsible=0;dropTarget=0;pointerEvents=0;points=[[0,0.5],[1,0.5]];portConstraint=eastwest;top=0;left=0;right=0;bottom=1;strokeWidth=1;startSize=30;fontStyle=1;align=left;fillOpacity=0;" parent="C-vyLk0tnHw3VtMMgP7b-23" vertex="1">
          <mxGeometry y="30" width="250" height="30" as="geometry" />
        </mxCell>
        <mxCell id="C-vyLk0tnHw3VtMMgP7b-25" value="PK" style="shape=partialRectangle;overflow=hidden;connectable=0;top=0;left=0;bottom=0;right=0;fontStyle=1;strokeWidth=1;startSize=30;align=left;fillOpacity=0;" parent="C-vyLk0tnHw3VtMMgP7b-24" vertex="1">
          <mxGeometry width="30" height="30" as="geometry">
            <mxRectangle width="30" height="30" as="alternateBounds" />
          </mxGeometry>
        </mxCell>
        <mxCell id="C-vyLk0tnHw3VtMMgP7b-26" value="camera_code, camera_id" style="shape=partialRectangle;overflow=hidden;connectable=0;top=0;left=0;bottom=0;right=0;align=left;spacingLeft=6;fontStyle=1;strokeWidth=1;startSize=30;fillOpacity=0;" parent="C-vyLk0tnHw3VtMMgP7b-24" vertex="1">
          <mxGeometry x="30" width="220" height="30" as="geometry">
            <mxRectangle width="220" height="30" as="alternateBounds" />
          </mxGeometry>
        </mxCell>
        <mxCell id="N7TVtfNPH1mrvqPcN6rD-169" value="" style="shape=tableRow;horizontal=0;startSize=0;swimlaneHead=0;swimlaneBody=0;collapsible=0;dropTarget=0;points=[[0,0.5],[1,0.5]];portConstraint=eastwest;top=0;left=0;right=0;bottom=0;strokeWidth=1;fontStyle=1;align=left;fillOpacity=0;" parent="C-vyLk0tnHw3VtMMgP7b-23" vertex="1">
          <mxGeometry y="60" width="250" height="30" as="geometry" />
        </mxCell>
        <mxCell id="N7TVtfNPH1mrvqPcN6rD-170" value="FK1" style="shape=partialRectangle;connectable=0;top=0;left=0;bottom=0;right=0;fontStyle=1;overflow=hidden;strokeWidth=1;startSize=30;align=left;fillOpacity=0;" parent="N7TVtfNPH1mrvqPcN6rD-169" vertex="1">
          <mxGeometry width="30" height="30" as="geometry">
            <mxRectangle width="30" height="30" as="alternateBounds" />
          </mxGeometry>
        </mxCell>
        <mxCell id="N7TVtfNPH1mrvqPcN6rD-171" value=" db_id int NOT NULL" style="shape=partialRectangle;connectable=0;top=0;left=0;bottom=0;right=0;align=left;spacingLeft=6;fontStyle=1;overflow=hidden;strokeWidth=1;startSize=30;fillOpacity=0;" parent="N7TVtfNPH1mrvqPcN6rD-169" vertex="1">
          <mxGeometry x="30" width="220" height="30" as="geometry">
            <mxRectangle width="220" height="30" as="alternateBounds" />
          </mxGeometry>
        </mxCell>
        <mxCell id="C-vyLk0tnHw3VtMMgP7b-27" value="" style="shape=partialRectangle;collapsible=0;dropTarget=0;pointerEvents=0;points=[[0,0.5],[1,0.5]];portConstraint=eastwest;top=0;left=0;right=0;bottom=0;strokeWidth=1;startSize=30;fontStyle=1;align=left;fillOpacity=0;" parent="C-vyLk0tnHw3VtMMgP7b-23" vertex="1">
          <mxGeometry y="90" width="250" height="30" as="geometry" />
        </mxCell>
        <mxCell id="C-vyLk0tnHw3VtMMgP7b-28" value="" style="shape=partialRectangle;overflow=hidden;connectable=0;top=0;left=0;bottom=0;right=0;strokeWidth=1;startSize=30;fontStyle=1;align=left;fillOpacity=0;" parent="C-vyLk0tnHw3VtMMgP7b-27" vertex="1">
          <mxGeometry width="30" height="30" as="geometry">
            <mxRectangle width="30" height="30" as="alternateBounds" />
          </mxGeometry>
        </mxCell>
        <mxCell id="C-vyLk0tnHw3VtMMgP7b-29" value="stream_url string" style="shape=partialRectangle;overflow=hidden;connectable=0;top=0;left=0;bottom=0;right=0;align=left;spacingLeft=6;strokeWidth=1;startSize=30;fontStyle=1;fillOpacity=0;" parent="C-vyLk0tnHw3VtMMgP7b-27" vertex="1">
          <mxGeometry x="30" width="220" height="30" as="geometry">
            <mxRectangle width="220" height="30" as="alternateBounds" />
          </mxGeometry>
        </mxCell>
        <mxCell id="N7TVtfNPH1mrvqPcN6rD-126" value="" style="shape=tableRow;horizontal=0;startSize=0;swimlaneHead=0;swimlaneBody=0;collapsible=0;dropTarget=0;points=[[0,0.5],[1,0.5]];portConstraint=eastwest;top=0;left=0;right=0;bottom=0;strokeWidth=1;fontStyle=1;align=left;fillOpacity=0;" parent="C-vyLk0tnHw3VtMMgP7b-23" vertex="1">
          <mxGeometry y="120" width="250" height="30" as="geometry" />
        </mxCell>
        <mxCell id="N7TVtfNPH1mrvqPcN6rD-127" value="" style="shape=partialRectangle;connectable=0;top=0;left=0;bottom=0;right=0;editable=1;overflow=hidden;strokeWidth=1;startSize=30;fontStyle=1;align=left;fillOpacity=0;" parent="N7TVtfNPH1mrvqPcN6rD-126" vertex="1">
          <mxGeometry width="30" height="30" as="geometry">
            <mxRectangle width="30" height="30" as="alternateBounds" />
          </mxGeometry>
        </mxCell>
        <mxCell id="N7TVtfNPH1mrvqPcN6rD-128" value="proposed_distance int" style="shape=partialRectangle;connectable=0;top=0;left=0;bottom=0;right=0;align=left;spacingLeft=6;overflow=hidden;strokeWidth=1;startSize=30;fontStyle=1;fillOpacity=0;" parent="N7TVtfNPH1mrvqPcN6rD-126" vertex="1">
          <mxGeometry x="30" width="220" height="30" as="geometry">
            <mxRectangle width="220" height="30" as="alternateBounds" />
          </mxGeometry>
        </mxCell>
        <mxCell id="QD3TEROpQWLYoImufcCq-11" value="" style="shape=tableRow;horizontal=0;startSize=0;swimlaneHead=0;swimlaneBody=0;collapsible=0;dropTarget=0;points=[[0,0.5],[1,0.5]];portConstraint=eastwest;top=0;left=0;right=0;bottom=0;strokeWidth=1;fontStyle=1;align=left;fillOpacity=0;" parent="C-vyLk0tnHw3VtMMgP7b-23" vertex="1">
          <mxGeometry y="150" width="250" height="30" as="geometry" />
        </mxCell>
        <mxCell id="QD3TEROpQWLYoImufcCq-12" value="" style="shape=partialRectangle;connectable=0;top=0;left=0;bottom=0;right=0;editable=1;overflow=hidden;strokeWidth=1;startSize=30;fontStyle=1;align=left;fillOpacity=0;" parent="QD3TEROpQWLYoImufcCq-11" vertex="1">
          <mxGeometry width="30" height="30" as="geometry">
            <mxRectangle width="30" height="30" as="alternateBounds" />
          </mxGeometry>
        </mxCell>
        <mxCell id="QD3TEROpQWLYoImufcCq-13" value="lane_direction enum (1,-1)" style="shape=partialRectangle;connectable=0;top=0;left=0;bottom=0;right=0;align=left;spacingLeft=6;overflow=hidden;strokeWidth=1;startSize=30;fontStyle=1;fillOpacity=0;" parent="QD3TEROpQWLYoImufcCq-11" vertex="1">
          <mxGeometry x="30" width="220" height="30" as="geometry">
            <mxRectangle width="220" height="30" as="alternateBounds" />
          </mxGeometry>
        </mxCell>
        <mxCell id="QD3TEROpQWLYoImufcCq-8" value="" style="shape=tableRow;horizontal=0;startSize=0;swimlaneHead=0;swimlaneBody=0;collapsible=0;dropTarget=0;points=[[0,0.5],[1,0.5]];portConstraint=eastwest;top=0;left=0;right=0;bottom=0;strokeWidth=1;fontStyle=1;align=left;fillOpacity=0;" parent="C-vyLk0tnHw3VtMMgP7b-23" vertex="1">
          <mxGeometry y="180" width="250" height="30" as="geometry" />
        </mxCell>
        <mxCell id="QD3TEROpQWLYoImufcCq-9" value="" style="shape=partialRectangle;connectable=0;top=0;left=0;bottom=0;right=0;editable=1;overflow=hidden;strokeWidth=1;startSize=30;fontStyle=1;align=left;fillOpacity=0;" parent="QD3TEROpQWLYoImufcCq-8" vertex="1">
          <mxGeometry width="30" height="30" as="geometry">
            <mxRectangle width="30" height="30" as="alternateBounds" />
          </mxGeometry>
        </mxCell>
        <mxCell id="QD3TEROpQWLYoImufcCq-10" value="operational_fps int" style="shape=partialRectangle;connectable=0;top=0;left=0;bottom=0;right=0;align=left;spacingLeft=6;overflow=hidden;strokeWidth=1;startSize=30;fontStyle=1;fillOpacity=0;" parent="QD3TEROpQWLYoImufcCq-8" vertex="1">
          <mxGeometry x="30" width="220" height="30" as="geometry">
            <mxRectangle width="220" height="30" as="alternateBounds" />
          </mxGeometry>
        </mxCell>
        <mxCell id="N7TVtfNPH1mrvqPcN6rD-132" value="" style="shape=tableRow;horizontal=0;startSize=0;swimlaneHead=0;swimlaneBody=0;collapsible=0;dropTarget=0;points=[[0,0.5],[1,0.5]];portConstraint=eastwest;top=0;left=0;right=0;bottom=0;strokeWidth=1;fontStyle=1;align=left;fillOpacity=0;" parent="C-vyLk0tnHw3VtMMgP7b-23" vertex="1">
          <mxGeometry y="210" width="250" height="30" as="geometry" />
        </mxCell>
        <mxCell id="N7TVtfNPH1mrvqPcN6rD-133" value="" style="shape=partialRectangle;connectable=0;top=0;left=0;bottom=0;right=0;editable=1;overflow=hidden;strokeWidth=1;startSize=30;fontStyle=1;align=left;fillOpacity=0;" parent="N7TVtfNPH1mrvqPcN6rD-132" vertex="1">
          <mxGeometry width="30" height="30" as="geometry">
            <mxRectangle width="30" height="30" as="alternateBounds" />
          </mxGeometry>
        </mxCell>
        <mxCell id="N7TVtfNPH1mrvqPcN6rD-134" value="operational_fps smoke int" style="shape=partialRectangle;connectable=0;top=0;left=0;bottom=0;right=0;align=left;spacingLeft=6;overflow=hidden;strokeWidth=1;startSize=30;fontStyle=1;fillOpacity=0;" parent="N7TVtfNPH1mrvqPcN6rD-132" vertex="1">
          <mxGeometry x="30" width="220" height="30" as="geometry">
            <mxRectangle width="220" height="30" as="alternateBounds" />
          </mxGeometry>
        </mxCell>
        <mxCell id="QD3TEROpQWLYoImufcCq-101" value="" style="shape=tableRow;horizontal=0;startSize=0;swimlaneHead=0;swimlaneBody=0;collapsible=0;dropTarget=0;points=[[0,0.5],[1,0.5]];portConstraint=eastwest;top=0;left=0;right=0;bottom=0;strokeWidth=1;fontStyle=1;align=left;fillOpacity=0;" parent="C-vyLk0tnHw3VtMMgP7b-23" vertex="1">
          <mxGeometry y="240" width="250" height="30" as="geometry" />
        </mxCell>
        <mxCell id="QD3TEROpQWLYoImufcCq-102" value="" style="shape=partialRectangle;connectable=0;top=0;left=0;bottom=0;right=0;editable=1;overflow=hidden;strokeWidth=1;startSize=30;fontStyle=1;align=left;fillOpacity=0;" parent="QD3TEROpQWLYoImufcCq-101" vertex="1">
          <mxGeometry width="30" height="30" as="geometry">
            <mxRectangle width="30" height="30" as="alternateBounds" />
          </mxGeometry>
        </mxCell>
        <mxCell id="QD3TEROpQWLYoImufcCq-103" value="operational_fps fire int" style="shape=partialRectangle;connectable=0;top=0;left=0;bottom=0;right=0;align=left;spacingLeft=6;overflow=hidden;strokeWidth=1;startSize=30;fontStyle=1;fillOpacity=0;" parent="QD3TEROpQWLYoImufcCq-101" vertex="1">
          <mxGeometry x="30" width="220" height="30" as="geometry">
            <mxRectangle width="220" height="30" as="alternateBounds" />
          </mxGeometry>
        </mxCell>
        <mxCell id="uGHviyEp8HrkVmWR_QCQ-53" value="" style="shape=tableRow;horizontal=0;startSize=0;swimlaneHead=0;swimlaneBody=0;collapsible=0;dropTarget=0;points=[[0,0.5],[1,0.5]];portConstraint=eastwest;top=0;left=0;right=0;bottom=0;strokeWidth=1;fontStyle=1;align=left;fillOpacity=0;" vertex="1" parent="C-vyLk0tnHw3VtMMgP7b-23">
          <mxGeometry y="270" width="250" height="30" as="geometry" />
        </mxCell>
        <mxCell id="uGHviyEp8HrkVmWR_QCQ-54" value="" style="shape=partialRectangle;connectable=0;top=0;left=0;bottom=0;right=0;editable=1;overflow=hidden;strokeWidth=1;startSize=30;fontStyle=1;align=left;fillOpacity=0;" vertex="1" parent="uGHviyEp8HrkVmWR_QCQ-53">
          <mxGeometry width="30" height="30" as="geometry">
            <mxRectangle width="30" height="30" as="alternateBounds" />
          </mxGeometry>
        </mxCell>
        <mxCell id="uGHviyEp8HrkVmWR_QCQ-55" value="operational_fps detection int" style="shape=partialRectangle;connectable=0;top=0;left=0;bottom=0;right=0;align=left;spacingLeft=6;overflow=hidden;strokeWidth=1;startSize=30;fontStyle=1;fillOpacity=0;" vertex="1" parent="uGHviyEp8HrkVmWR_QCQ-53">
          <mxGeometry x="30" width="220" height="30" as="geometry">
            <mxRectangle width="220" height="30" as="alternateBounds" />
          </mxGeometry>
        </mxCell>
        <mxCell id="QD3TEROpQWLYoImufcCq-14" value="" style="shape=tableRow;horizontal=0;startSize=0;swimlaneHead=0;swimlaneBody=0;collapsible=0;dropTarget=0;points=[[0,0.5],[1,0.5]];portConstraint=eastwest;top=0;left=0;right=0;bottom=0;strokeWidth=1;fontStyle=1;align=left;fillOpacity=0;" parent="C-vyLk0tnHw3VtMMgP7b-23" vertex="1">
          <mxGeometry y="300" width="250" height="30" as="geometry" />
        </mxCell>
        <mxCell id="QD3TEROpQWLYoImufcCq-15" value="" style="shape=partialRectangle;connectable=0;top=0;left=0;bottom=0;right=0;editable=1;overflow=hidden;strokeWidth=1;startSize=30;fontStyle=1;align=left;fillOpacity=0;" parent="QD3TEROpQWLYoImufcCq-14" vertex="1">
          <mxGeometry width="30" height="30" as="geometry">
            <mxRectangle width="30" height="30" as="alternateBounds" />
          </mxGeometry>
        </mxCell>
        <mxCell id="QD3TEROpQWLYoImufcCq-16" value="operational_fps segmentation int" style="shape=partialRectangle;connectable=0;top=0;left=0;bottom=0;right=0;align=left;spacingLeft=6;overflow=hidden;strokeWidth=1;startSize=30;fontStyle=1;fillOpacity=0;" parent="QD3TEROpQWLYoImufcCq-14" vertex="1">
          <mxGeometry x="30" width="220" height="30" as="geometry">
            <mxRectangle width="220" height="30" as="alternateBounds" />
          </mxGeometry>
        </mxCell>
        <mxCell id="QD3TEROpQWLYoImufcCq-22" value="" style="shape=tableRow;horizontal=0;startSize=0;swimlaneHead=0;swimlaneBody=0;collapsible=0;dropTarget=0;points=[[0,0.5],[1,0.5]];portConstraint=eastwest;top=0;left=0;right=0;bottom=0;strokeWidth=1;fontStyle=1;align=left;fillOpacity=0;" parent="C-vyLk0tnHw3VtMMgP7b-23" vertex="1">
          <mxGeometry y="330" width="250" height="30" as="geometry" />
        </mxCell>
        <mxCell id="QD3TEROpQWLYoImufcCq-23" value="FK2" style="shape=partialRectangle;connectable=0;top=0;left=0;bottom=0;right=0;editable=1;overflow=hidden;strokeWidth=1;startSize=30;fontStyle=1;align=left;fillOpacity=0;" parent="QD3TEROpQWLYoImufcCq-22" vertex="1">
          <mxGeometry width="30" height="30" as="geometry">
            <mxRectangle width="30" height="30" as="alternateBounds" />
          </mxGeometry>
        </mxCell>
        <mxCell id="QD3TEROpQWLYoImufcCq-24" value="calibration_id int" style="shape=partialRectangle;connectable=0;top=0;left=0;bottom=0;right=0;align=left;spacingLeft=6;overflow=hidden;strokeWidth=1;startSize=30;fontStyle=1;fillOpacity=0;" parent="QD3TEROpQWLYoImufcCq-22" vertex="1">
          <mxGeometry x="30" width="220" height="30" as="geometry">
            <mxRectangle width="220" height="30" as="alternateBounds" />
          </mxGeometry>
        </mxCell>
        <mxCell id="uGHviyEp8HrkVmWR_QCQ-50" value="" style="shape=tableRow;horizontal=0;startSize=0;swimlaneHead=0;swimlaneBody=0;collapsible=0;dropTarget=0;points=[[0,0.5],[1,0.5]];portConstraint=eastwest;top=0;left=0;right=0;bottom=0;strokeWidth=1;fontStyle=1;align=left;fillOpacity=0;" vertex="1" parent="C-vyLk0tnHw3VtMMgP7b-23">
          <mxGeometry y="360" width="250" height="30" as="geometry" />
        </mxCell>
        <mxCell id="uGHviyEp8HrkVmWR_QCQ-51" value="" style="shape=partialRectangle;connectable=0;top=0;left=0;bottom=0;right=0;editable=1;overflow=hidden;strokeWidth=1;startSize=30;fontStyle=1;align=left;fillOpacity=0;" vertex="1" parent="uGHviyEp8HrkVmWR_QCQ-50">
          <mxGeometry width="30" height="30" as="geometry">
            <mxRectangle width="30" height="30" as="alternateBounds" />
          </mxGeometry>
        </mxCell>
        <mxCell id="uGHviyEp8HrkVmWR_QCQ-52" value="camera_fps int" style="shape=partialRectangle;connectable=0;top=0;left=0;bottom=0;right=0;align=left;spacingLeft=6;overflow=hidden;strokeWidth=1;startSize=30;fontStyle=1;fillOpacity=0;" vertex="1" parent="uGHviyEp8HrkVmWR_QCQ-50">
          <mxGeometry x="30" width="220" height="30" as="geometry">
            <mxRectangle width="220" height="30" as="alternateBounds" />
          </mxGeometry>
        </mxCell>
        <mxCell id="QD3TEROpQWLYoImufcCq-19" value="" style="shape=tableRow;horizontal=0;startSize=0;swimlaneHead=0;swimlaneBody=0;collapsible=0;dropTarget=0;points=[[0,0.5],[1,0.5]];portConstraint=eastwest;top=0;left=0;right=0;bottom=0;strokeWidth=1;fontStyle=1;align=left;fillOpacity=0;" parent="C-vyLk0tnHw3VtMMgP7b-23" vertex="1">
          <mxGeometry y="390" width="250" height="30" as="geometry" />
        </mxCell>
        <mxCell id="QD3TEROpQWLYoImufcCq-20" value="" style="shape=partialRectangle;connectable=0;top=0;left=0;bottom=0;right=0;editable=1;overflow=hidden;strokeWidth=1;startSize=30;fontStyle=1;align=left;fillOpacity=0;" parent="QD3TEROpQWLYoImufcCq-19" vertex="1">
          <mxGeometry width="30" height="30" as="geometry">
            <mxRectangle width="30" height="30" as="alternateBounds" />
          </mxGeometry>
        </mxCell>
        <mxCell id="QD3TEROpQWLYoImufcCq-21" value="camera_reset_time int" style="shape=partialRectangle;connectable=0;top=0;left=0;bottom=0;right=0;align=left;spacingLeft=6;overflow=hidden;strokeWidth=1;startSize=30;fontStyle=1;fillOpacity=0;" parent="QD3TEROpQWLYoImufcCq-19" vertex="1">
          <mxGeometry x="30" width="220" height="30" as="geometry">
            <mxRectangle width="220" height="30" as="alternateBounds" />
          </mxGeometry>
        </mxCell>
        <mxCell id="QD3TEROpQWLYoImufcCq-4" value="" style="shape=tableRow;horizontal=0;startSize=0;swimlaneHead=0;swimlaneBody=0;collapsible=0;dropTarget=0;points=[[0,0.5],[1,0.5]];portConstraint=eastwest;top=0;left=0;right=0;bottom=0;strokeWidth=1;fontStyle=1;align=left;fillOpacity=0;" parent="C-vyLk0tnHw3VtMMgP7b-23" vertex="1">
          <mxGeometry y="420" width="250" height="30" as="geometry" />
        </mxCell>
        <mxCell id="QD3TEROpQWLYoImufcCq-5" value="" style="shape=partialRectangle;connectable=0;top=0;left=0;bottom=0;right=0;editable=1;overflow=hidden;strokeWidth=1;startSize=30;fontStyle=1;align=left;fillOpacity=0;" parent="QD3TEROpQWLYoImufcCq-4" vertex="1">
          <mxGeometry width="30" height="30" as="geometry">
            <mxRectangle width="30" height="30" as="alternateBounds" />
          </mxGeometry>
        </mxCell>
        <mxCell id="QD3TEROpQWLYoImufcCq-6" value="camera_id string NOT NULL" style="shape=partialRectangle;connectable=0;top=0;left=0;bottom=0;right=0;align=left;spacingLeft=6;overflow=hidden;strokeWidth=1;startSize=30;fontStyle=1;fillOpacity=0;" parent="QD3TEROpQWLYoImufcCq-4" vertex="1">
          <mxGeometry x="30" width="220" height="30" as="geometry">
            <mxRectangle width="220" height="30" as="alternateBounds" />
          </mxGeometry>
        </mxCell>
        <mxCell id="N7TVtfNPH1mrvqPcN6rD-135" value="" style="shape=tableRow;horizontal=0;startSize=0;swimlaneHead=0;swimlaneBody=0;collapsible=0;dropTarget=0;points=[[0,0.5],[1,0.5]];portConstraint=eastwest;top=0;left=0;right=0;bottom=0;strokeWidth=1;fontStyle=1;align=left;fillOpacity=0;" parent="C-vyLk0tnHw3VtMMgP7b-23" vertex="1">
          <mxGeometry y="450" width="250" height="30" as="geometry" />
        </mxCell>
        <mxCell id="N7TVtfNPH1mrvqPcN6rD-136" value="" style="shape=partialRectangle;connectable=0;top=0;left=0;bottom=0;right=0;editable=1;overflow=hidden;strokeWidth=1;startSize=30;fontStyle=1;align=left;fillOpacity=0;" parent="N7TVtfNPH1mrvqPcN6rD-135" vertex="1">
          <mxGeometry width="30" height="30" as="geometry">
            <mxRectangle width="30" height="30" as="alternateBounds" />
          </mxGeometry>
        </mxCell>
        <mxCell id="N7TVtfNPH1mrvqPcN6rD-137" value="camera_code string NOT NULL" style="shape=partialRectangle;connectable=0;top=0;left=0;bottom=0;right=0;align=left;spacingLeft=6;overflow=hidden;strokeWidth=1;startSize=30;fontStyle=1;fillOpacity=0;" parent="N7TVtfNPH1mrvqPcN6rD-135" vertex="1">
          <mxGeometry x="30" width="220" height="30" as="geometry">
            <mxRectangle width="220" height="30" as="alternateBounds" />
          </mxGeometry>
        </mxCell>
        <mxCell id="N7TVtfNPH1mrvqPcN6rD-150" value="CLIENT" style="shape=table;startSize=30;container=1;collapsible=1;childLayout=tableLayout;fixedRows=1;rowLines=0;fontStyle=1;align=left;resizeLast=1;strokeWidth=1;fillOpacity=0;" parent="1" vertex="1">
          <mxGeometry x="120" y="110" width="250" height="160" as="geometry">
            <mxRectangle x="120" y="120" width="100" height="30" as="alternateBounds" />
          </mxGeometry>
        </mxCell>
        <mxCell id="N7TVtfNPH1mrvqPcN6rD-151" value="" style="shape=partialRectangle;collapsible=0;dropTarget=0;pointerEvents=0;points=[[0,0.5],[1,0.5]];portConstraint=eastwest;top=0;left=0;right=0;bottom=1;strokeWidth=1;startSize=30;fontStyle=1;align=left;fillOpacity=0;" parent="N7TVtfNPH1mrvqPcN6rD-150" vertex="1">
          <mxGeometry y="30" width="250" height="30" as="geometry" />
        </mxCell>
        <mxCell id="N7TVtfNPH1mrvqPcN6rD-152" value="PK" style="shape=partialRectangle;overflow=hidden;connectable=0;top=0;left=0;bottom=0;right=0;fontStyle=1;strokeWidth=1;startSize=30;align=left;fillOpacity=0;" parent="N7TVtfNPH1mrvqPcN6rD-151" vertex="1">
          <mxGeometry width="30" height="30" as="geometry">
            <mxRectangle width="30" height="30" as="alternateBounds" />
          </mxGeometry>
        </mxCell>
        <mxCell id="N7TVtfNPH1mrvqPcN6rD-153" value="client_id, update (int,int) NOT NULL" style="shape=partialRectangle;overflow=hidden;connectable=0;top=0;left=0;bottom=0;right=0;align=left;spacingLeft=6;fontStyle=1;strokeWidth=1;startSize=30;fillOpacity=0;" parent="N7TVtfNPH1mrvqPcN6rD-151" vertex="1">
          <mxGeometry x="30" width="220" height="30" as="geometry">
            <mxRectangle width="220" height="30" as="alternateBounds" />
          </mxGeometry>
        </mxCell>
        <mxCell id="uGHviyEp8HrkVmWR_QCQ-44" value="" style="shape=partialRectangle;collapsible=0;dropTarget=0;pointerEvents=0;points=[[0,0.5],[1,0.5]];portConstraint=eastwest;top=0;left=0;right=0;bottom=0;strokeWidth=1;startSize=30;fontStyle=1;align=left;fillOpacity=0;" vertex="1" parent="N7TVtfNPH1mrvqPcN6rD-150">
          <mxGeometry y="60" width="250" height="30" as="geometry" />
        </mxCell>
        <mxCell id="uGHviyEp8HrkVmWR_QCQ-45" value="" style="shape=partialRectangle;overflow=hidden;connectable=0;top=0;left=0;bottom=0;right=0;strokeWidth=1;startSize=30;fontStyle=1;align=left;fillOpacity=0;" vertex="1" parent="uGHviyEp8HrkVmWR_QCQ-44">
          <mxGeometry width="30" height="30" as="geometry">
            <mxRectangle width="30" height="30" as="alternateBounds" />
          </mxGeometry>
        </mxCell>
        <mxCell id="uGHviyEp8HrkVmWR_QCQ-46" value="update int" style="shape=partialRectangle;overflow=hidden;connectable=0;top=0;left=0;bottom=0;right=0;align=left;spacingLeft=6;strokeWidth=1;startSize=30;fontStyle=1;fillOpacity=0;" vertex="1" parent="uGHviyEp8HrkVmWR_QCQ-44">
          <mxGeometry x="30" width="220" height="30" as="geometry">
            <mxRectangle width="220" height="30" as="alternateBounds" />
          </mxGeometry>
        </mxCell>
        <mxCell id="uGHviyEp8HrkVmWR_QCQ-47" value="" style="shape=partialRectangle;collapsible=0;dropTarget=0;pointerEvents=0;points=[[0,0.5],[1,0.5]];portConstraint=eastwest;top=0;left=0;right=0;bottom=0;strokeWidth=1;startSize=30;fontStyle=1;align=left;fillOpacity=0;" vertex="1" parent="N7TVtfNPH1mrvqPcN6rD-150">
          <mxGeometry y="90" width="250" height="30" as="geometry" />
        </mxCell>
        <mxCell id="uGHviyEp8HrkVmWR_QCQ-48" value="" style="shape=partialRectangle;overflow=hidden;connectable=0;top=0;left=0;bottom=0;right=0;strokeWidth=1;startSize=30;fontStyle=1;align=left;fillOpacity=0;" vertex="1" parent="uGHviyEp8HrkVmWR_QCQ-47">
          <mxGeometry width="30" height="30" as="geometry">
            <mxRectangle width="30" height="30" as="alternateBounds" />
          </mxGeometry>
        </mxCell>
        <mxCell id="uGHviyEp8HrkVmWR_QCQ-49" value="client name int" style="shape=partialRectangle;overflow=hidden;connectable=0;top=0;left=0;bottom=0;right=0;align=left;spacingLeft=6;strokeWidth=1;startSize=30;fontStyle=1;fillOpacity=0;" vertex="1" parent="uGHviyEp8HrkVmWR_QCQ-47">
          <mxGeometry x="30" width="220" height="30" as="geometry">
            <mxRectangle width="220" height="30" as="alternateBounds" />
          </mxGeometry>
        </mxCell>
        <mxCell id="N7TVtfNPH1mrvqPcN6rD-154" value="" style="shape=partialRectangle;collapsible=0;dropTarget=0;pointerEvents=0;points=[[0,0.5],[1,0.5]];portConstraint=eastwest;top=0;left=0;right=0;bottom=0;strokeWidth=1;startSize=30;fontStyle=1;align=left;fillOpacity=0;" parent="N7TVtfNPH1mrvqPcN6rD-150" vertex="1">
          <mxGeometry y="120" width="250" height="30" as="geometry" />
        </mxCell>
        <mxCell id="N7TVtfNPH1mrvqPcN6rD-155" value="" style="shape=partialRectangle;overflow=hidden;connectable=0;top=0;left=0;bottom=0;right=0;strokeWidth=1;startSize=30;fontStyle=1;align=left;fillOpacity=0;" parent="N7TVtfNPH1mrvqPcN6rD-154" vertex="1">
          <mxGeometry width="30" height="30" as="geometry">
            <mxRectangle width="30" height="30" as="alternateBounds" />
          </mxGeometry>
        </mxCell>
        <mxCell id="N7TVtfNPH1mrvqPcN6rD-156" value="update date date" style="shape=partialRectangle;overflow=hidden;connectable=0;top=0;left=0;bottom=0;right=0;align=left;spacingLeft=6;strokeWidth=1;startSize=30;fontStyle=1;fillOpacity=0;" parent="N7TVtfNPH1mrvqPcN6rD-154" vertex="1">
          <mxGeometry x="30" width="220" height="30" as="geometry">
            <mxRectangle width="220" height="30" as="alternateBounds" />
          </mxGeometry>
        </mxCell>
        <mxCell id="N7TVtfNPH1mrvqPcN6rD-172" style="edgeStyle=orthogonalEdgeStyle;rounded=0;orthogonalLoop=1;jettySize=auto;html=1;exitX=0;exitY=0.5;exitDx=0;exitDy=0;entryX=1;entryY=0.5;entryDx=0;entryDy=0;strokeWidth=1;fontSize=12;startSize=30;fontStyle=1;align=left;fillOpacity=0;" parent="1" source="N7TVtfNPH1mrvqPcN6rD-169" target="N7TVtfNPH1mrvqPcN6rD-151" edge="1">
          <mxGeometry relative="1" as="geometry" />
        </mxCell>
        <mxCell id="N7TVtfNPH1mrvqPcN6rD-192" value="MODEL" style="shape=table;startSize=30;container=1;collapsible=1;childLayout=tableLayout;fixedRows=1;rowLines=0;fontStyle=1;align=left;resizeLast=1;strokeWidth=1;fillOpacity=0;" parent="1" vertex="1">
          <mxGeometry x="190" y="600" width="450" height="250" as="geometry">
            <mxRectangle x="120" y="120" width="100" height="30" as="alternateBounds" />
          </mxGeometry>
        </mxCell>
        <mxCell id="N7TVtfNPH1mrvqPcN6rD-193" value="" style="shape=partialRectangle;collapsible=0;dropTarget=0;pointerEvents=0;points=[[0,0.5],[1,0.5]];portConstraint=eastwest;top=0;left=0;right=0;bottom=1;strokeWidth=1;startSize=30;fontStyle=1;align=left;fillOpacity=0;" parent="N7TVtfNPH1mrvqPcN6rD-192" vertex="1">
          <mxGeometry y="30" width="450" height="30" as="geometry" />
        </mxCell>
        <mxCell id="N7TVtfNPH1mrvqPcN6rD-194" value="PK" style="shape=partialRectangle;overflow=hidden;connectable=0;top=0;left=0;bottom=0;right=0;fontStyle=1;strokeWidth=1;startSize=30;align=left;fillOpacity=0;" parent="N7TVtfNPH1mrvqPcN6rD-193" vertex="1">
          <mxGeometry width="30" height="30" as="geometry">
            <mxRectangle width="30" height="30" as="alternateBounds" />
          </mxGeometry>
        </mxCell>
        <mxCell id="N7TVtfNPH1mrvqPcN6rD-195" value="(model_major,model_minor) (char,char) NOT NULL" style="shape=partialRectangle;overflow=hidden;connectable=0;top=0;left=0;bottom=0;right=0;align=left;spacingLeft=6;fontStyle=1;strokeWidth=1;startSize=30;fillOpacity=0;" parent="N7TVtfNPH1mrvqPcN6rD-193" vertex="1">
          <mxGeometry x="30" width="420" height="30" as="geometry">
            <mxRectangle width="420" height="30" as="alternateBounds" />
          </mxGeometry>
        </mxCell>
        <mxCell id="N7TVtfNPH1mrvqPcN6rD-199" value="" style="shape=tableRow;horizontal=0;startSize=0;swimlaneHead=0;swimlaneBody=0;collapsible=0;dropTarget=0;points=[[0,0.5],[1,0.5]];portConstraint=eastwest;top=0;left=0;right=0;bottom=0;strokeWidth=1;fontStyle=1;align=left;fillOpacity=0;" parent="N7TVtfNPH1mrvqPcN6rD-192" vertex="1">
          <mxGeometry y="60" width="450" height="30" as="geometry" />
        </mxCell>
        <mxCell id="N7TVtfNPH1mrvqPcN6rD-200" value="FK1" style="shape=partialRectangle;connectable=0;top=0;left=0;bottom=0;right=0;fontStyle=1;overflow=hidden;strokeWidth=1;startSize=30;align=left;fillOpacity=0;" parent="N7TVtfNPH1mrvqPcN6rD-199" vertex="1">
          <mxGeometry width="30" height="30" as="geometry">
            <mxRectangle width="30" height="30" as="alternateBounds" />
          </mxGeometry>
        </mxCell>
        <mxCell id="N7TVtfNPH1mrvqPcN6rD-201" value=" db_id int NOT NULL" style="shape=partialRectangle;connectable=0;top=0;left=0;bottom=0;right=0;align=left;spacingLeft=6;fontStyle=1;overflow=hidden;strokeWidth=1;startSize=30;fillOpacity=0;" parent="N7TVtfNPH1mrvqPcN6rD-199" vertex="1">
          <mxGeometry x="30" width="420" height="30" as="geometry">
            <mxRectangle width="420" height="30" as="alternateBounds" />
          </mxGeometry>
        </mxCell>
        <mxCell id="BFBuDWP6qZN-34i26mXP-14" value="" style="shape=tableRow;horizontal=0;startSize=0;swimlaneHead=0;swimlaneBody=0;collapsible=0;dropTarget=0;points=[[0,0.5],[1,0.5]];portConstraint=eastwest;top=0;left=0;right=0;bottom=0;strokeWidth=1;fontStyle=1;align=left;fillOpacity=0;" parent="N7TVtfNPH1mrvqPcN6rD-192" vertex="1">
          <mxGeometry y="90" width="450" height="30" as="geometry" />
        </mxCell>
        <mxCell id="BFBuDWP6qZN-34i26mXP-15" value="FK2" style="shape=partialRectangle;connectable=0;top=0;left=0;bottom=0;right=0;fontStyle=1;overflow=hidden;strokeWidth=1;startSize=30;align=left;fillOpacity=0;" parent="BFBuDWP6qZN-34i26mXP-14" vertex="1">
          <mxGeometry width="30" height="30" as="geometry">
            <mxRectangle width="30" height="30" as="alternateBounds" />
          </mxGeometry>
        </mxCell>
        <mxCell id="BFBuDWP6qZN-34i26mXP-16" value="code_id_version major.minor.bugfix int,int,int NOT NULL" style="shape=partialRectangle;connectable=0;top=0;left=0;bottom=0;right=0;align=left;spacingLeft=6;fontStyle=1;overflow=hidden;strokeWidth=1;startSize=30;fillOpacity=0;" parent="BFBuDWP6qZN-34i26mXP-14" vertex="1">
          <mxGeometry x="30" width="420" height="30" as="geometry">
            <mxRectangle width="420" height="30" as="alternateBounds" />
          </mxGeometry>
        </mxCell>
        <mxCell id="N7TVtfNPH1mrvqPcN6rD-196" value="" style="shape=partialRectangle;collapsible=0;dropTarget=0;pointerEvents=0;points=[[0,0.5],[1,0.5]];portConstraint=eastwest;top=0;left=0;right=0;bottom=0;strokeWidth=1;startSize=30;fontStyle=1;align=left;fillOpacity=0;" parent="N7TVtfNPH1mrvqPcN6rD-192" vertex="1">
          <mxGeometry y="120" width="450" height="30" as="geometry" />
        </mxCell>
        <mxCell id="N7TVtfNPH1mrvqPcN6rD-197" value="" style="shape=partialRectangle;overflow=hidden;connectable=0;top=0;left=0;bottom=0;right=0;strokeWidth=1;startSize=30;fontStyle=1;align=left;fillOpacity=0;" parent="N7TVtfNPH1mrvqPcN6rD-196" vertex="1">
          <mxGeometry width="30" height="30" as="geometry">
            <mxRectangle width="30" height="30" as="alternateBounds" />
          </mxGeometry>
        </mxCell>
        <mxCell id="N7TVtfNPH1mrvqPcN6rD-198" value="storage string" style="shape=partialRectangle;overflow=hidden;connectable=0;top=0;left=0;bottom=0;right=0;align=left;spacingLeft=6;strokeWidth=1;startSize=30;fontStyle=1;fillOpacity=0;" parent="N7TVtfNPH1mrvqPcN6rD-196" vertex="1">
          <mxGeometry x="30" width="420" height="30" as="geometry">
            <mxRectangle width="420" height="30" as="alternateBounds" />
          </mxGeometry>
        </mxCell>
        <mxCell id="N7TVtfNPH1mrvqPcN6rD-202" value="" style="shape=tableRow;horizontal=0;startSize=0;swimlaneHead=0;swimlaneBody=0;collapsible=0;dropTarget=0;points=[[0,0.5],[1,0.5]];portConstraint=eastwest;top=0;left=0;right=0;bottom=0;strokeWidth=1;fontStyle=1;align=left;fillOpacity=0;" parent="N7TVtfNPH1mrvqPcN6rD-192" vertex="1">
          <mxGeometry y="150" width="450" height="30" as="geometry" />
        </mxCell>
        <mxCell id="N7TVtfNPH1mrvqPcN6rD-203" value="" style="shape=partialRectangle;connectable=0;top=0;left=0;bottom=0;right=0;editable=1;overflow=hidden;strokeWidth=1;startSize=30;fontStyle=1;align=left;fillOpacity=0;" parent="N7TVtfNPH1mrvqPcN6rD-202" vertex="1">
          <mxGeometry width="30" height="30" as="geometry">
            <mxRectangle width="30" height="30" as="alternateBounds" />
          </mxGeometry>
        </mxCell>
        <mxCell id="N7TVtfNPH1mrvqPcN6rD-204" value="path string" style="shape=partialRectangle;connectable=0;top=0;left=0;bottom=0;right=0;align=left;spacingLeft=6;overflow=hidden;strokeWidth=1;startSize=30;fontStyle=1;fillOpacity=0;" parent="N7TVtfNPH1mrvqPcN6rD-202" vertex="1">
          <mxGeometry x="30" width="420" height="30" as="geometry">
            <mxRectangle width="420" height="30" as="alternateBounds" />
          </mxGeometry>
        </mxCell>
        <mxCell id="N7TVtfNPH1mrvqPcN6rD-208" value="" style="shape=tableRow;horizontal=0;startSize=0;swimlaneHead=0;swimlaneBody=0;collapsible=0;dropTarget=0;points=[[0,0.5],[1,0.5]];portConstraint=eastwest;top=0;left=0;right=0;bottom=0;strokeWidth=1;fontStyle=1;align=left;fillOpacity=0;" parent="N7TVtfNPH1mrvqPcN6rD-192" vertex="1">
          <mxGeometry y="180" width="450" height="30" as="geometry" />
        </mxCell>
        <mxCell id="N7TVtfNPH1mrvqPcN6rD-209" value="" style="shape=partialRectangle;connectable=0;top=0;left=0;bottom=0;right=0;editable=1;overflow=hidden;strokeWidth=1;startSize=30;fontStyle=1;align=left;fillOpacity=0;" parent="N7TVtfNPH1mrvqPcN6rD-208" vertex="1">
          <mxGeometry width="30" height="30" as="geometry">
            <mxRectangle width="30" height="30" as="alternateBounds" />
          </mxGeometry>
        </mxCell>
        <mxCell id="N7TVtfNPH1mrvqPcN6rD-210" value="create_date date" style="shape=partialRectangle;connectable=0;top=0;left=0;bottom=0;right=0;align=left;spacingLeft=6;overflow=hidden;strokeWidth=1;startSize=30;fontStyle=1;fillOpacity=0;" parent="N7TVtfNPH1mrvqPcN6rD-208" vertex="1">
          <mxGeometry x="30" width="420" height="30" as="geometry">
            <mxRectangle width="420" height="30" as="alternateBounds" />
          </mxGeometry>
        </mxCell>
        <mxCell id="BFBuDWP6qZN-34i26mXP-18" value="" style="shape=tableRow;horizontal=0;startSize=0;swimlaneHead=0;swimlaneBody=0;collapsible=0;dropTarget=0;points=[[0,0.5],[1,0.5]];portConstraint=eastwest;top=0;left=0;right=0;bottom=0;strokeWidth=1;fontStyle=1;align=left;fillOpacity=0;" parent="N7TVtfNPH1mrvqPcN6rD-192" vertex="1">
          <mxGeometry y="210" width="450" height="30" as="geometry" />
        </mxCell>
        <mxCell id="BFBuDWP6qZN-34i26mXP-19" value="" style="shape=partialRectangle;connectable=0;top=0;left=0;bottom=0;right=0;editable=1;overflow=hidden;strokeWidth=1;startSize=30;fontStyle=1;align=left;fillOpacity=0;" parent="BFBuDWP6qZN-34i26mXP-18" vertex="1">
          <mxGeometry width="30" height="30" as="geometry">
            <mxRectangle width="30" height="30" as="alternateBounds" />
          </mxGeometry>
        </mxCell>
        <mxCell id="BFBuDWP6qZN-34i26mXP-20" value="type ENUM (segmentation, localization, calibration, smoke)" style="shape=partialRectangle;connectable=0;top=0;left=0;bottom=0;right=0;align=left;spacingLeft=6;overflow=hidden;strokeWidth=1;startSize=30;fontStyle=1;fillOpacity=0;" parent="BFBuDWP6qZN-34i26mXP-18" vertex="1">
          <mxGeometry x="30" width="420" height="30" as="geometry">
            <mxRectangle width="420" height="30" as="alternateBounds" />
          </mxGeometry>
        </mxCell>
        <mxCell id="BFBuDWP6qZN-34i26mXP-4" value="code version" style="shape=table;startSize=30;container=1;collapsible=1;childLayout=tableLayout;fixedRows=1;rowLines=0;fontStyle=1;align=left;resizeLast=1;strokeWidth=1;fillOpacity=0;" parent="1" vertex="1">
          <mxGeometry x="720" y="660" width="400" height="160" as="geometry">
            <mxRectangle x="120" y="120" width="100" height="30" as="alternateBounds" />
          </mxGeometry>
        </mxCell>
        <mxCell id="BFBuDWP6qZN-34i26mXP-5" value="" style="shape=partialRectangle;collapsible=0;dropTarget=0;pointerEvents=0;points=[[0,0.5],[1,0.5]];portConstraint=eastwest;top=0;left=0;right=0;bottom=1;strokeWidth=1;startSize=30;fontStyle=1;align=left;fillOpacity=0;" parent="BFBuDWP6qZN-34i26mXP-4" vertex="1">
          <mxGeometry y="30" width="400" height="30" as="geometry" />
        </mxCell>
        <mxCell id="BFBuDWP6qZN-34i26mXP-6" value="PK" style="shape=partialRectangle;overflow=hidden;connectable=0;top=0;left=0;bottom=0;right=0;fontStyle=1;strokeWidth=1;startSize=30;align=left;fillOpacity=0;" parent="BFBuDWP6qZN-34i26mXP-5" vertex="1">
          <mxGeometry width="30" height="30" as="geometry">
            <mxRectangle width="30" height="30" as="alternateBounds" />
          </mxGeometry>
        </mxCell>
        <mxCell id="BFBuDWP6qZN-34i26mXP-7" value="code_id_version major.minor.bugfix int,int,int NOT NULL" style="shape=partialRectangle;overflow=hidden;connectable=0;top=0;left=0;bottom=0;right=0;align=left;spacingLeft=6;fontStyle=1;strokeWidth=1;startSize=30;fillOpacity=0;" parent="BFBuDWP6qZN-34i26mXP-5" vertex="1">
          <mxGeometry x="30" width="370" height="30" as="geometry">
            <mxRectangle width="370" height="30" as="alternateBounds" />
          </mxGeometry>
        </mxCell>
        <mxCell id="BFBuDWP6qZN-34i26mXP-8" value="" style="shape=partialRectangle;collapsible=0;dropTarget=0;pointerEvents=0;points=[[0,0.5],[1,0.5]];portConstraint=eastwest;top=0;left=0;right=0;bottom=0;strokeWidth=1;startSize=30;fontStyle=1;align=left;fillOpacity=0;" parent="BFBuDWP6qZN-34i26mXP-4" vertex="1">
          <mxGeometry y="60" width="400" height="30" as="geometry" />
        </mxCell>
        <mxCell id="BFBuDWP6qZN-34i26mXP-9" value="" style="shape=partialRectangle;overflow=hidden;connectable=0;top=0;left=0;bottom=0;right=0;strokeWidth=1;startSize=30;fontStyle=1;align=left;fillOpacity=0;" parent="BFBuDWP6qZN-34i26mXP-8" vertex="1">
          <mxGeometry width="30" height="30" as="geometry">
            <mxRectangle width="30" height="30" as="alternateBounds" />
          </mxGeometry>
        </mxCell>
        <mxCell id="BFBuDWP6qZN-34i26mXP-10" value="major int" style="shape=partialRectangle;overflow=hidden;connectable=0;top=0;left=0;bottom=0;right=0;align=left;spacingLeft=6;strokeWidth=1;startSize=30;fontStyle=1;fillOpacity=0;" parent="BFBuDWP6qZN-34i26mXP-8" vertex="1">
          <mxGeometry x="30" width="370" height="30" as="geometry">
            <mxRectangle width="370" height="30" as="alternateBounds" />
          </mxGeometry>
        </mxCell>
        <mxCell id="BFBuDWP6qZN-34i26mXP-11" value="" style="shape=tableRow;horizontal=0;startSize=0;swimlaneHead=0;swimlaneBody=0;collapsible=0;dropTarget=0;points=[[0,0.5],[1,0.5]];portConstraint=eastwest;top=0;left=0;right=0;bottom=0;strokeWidth=1;fontStyle=1;align=left;fillOpacity=0;" parent="BFBuDWP6qZN-34i26mXP-4" vertex="1">
          <mxGeometry y="90" width="400" height="30" as="geometry" />
        </mxCell>
        <mxCell id="BFBuDWP6qZN-34i26mXP-12" value="" style="shape=partialRectangle;connectable=0;top=0;left=0;bottom=0;right=0;editable=1;overflow=hidden;strokeWidth=1;startSize=30;fontStyle=1;align=left;fillOpacity=0;" parent="BFBuDWP6qZN-34i26mXP-11" vertex="1">
          <mxGeometry width="30" height="30" as="geometry">
            <mxRectangle width="30" height="30" as="alternateBounds" />
          </mxGeometry>
        </mxCell>
        <mxCell id="BFBuDWP6qZN-34i26mXP-13" value="minor int" style="shape=partialRectangle;connectable=0;top=0;left=0;bottom=0;right=0;align=left;spacingLeft=6;overflow=hidden;strokeWidth=1;startSize=30;fontStyle=1;fillOpacity=0;" parent="BFBuDWP6qZN-34i26mXP-11" vertex="1">
          <mxGeometry x="30" width="370" height="30" as="geometry">
            <mxRectangle width="370" height="30" as="alternateBounds" />
          </mxGeometry>
        </mxCell>
        <mxCell id="BFBuDWP6qZN-34i26mXP-30" value="" style="shape=tableRow;horizontal=0;startSize=0;swimlaneHead=0;swimlaneBody=0;collapsible=0;dropTarget=0;points=[[0,0.5],[1,0.5]];portConstraint=eastwest;top=0;left=0;right=0;bottom=0;strokeWidth=1;fontStyle=1;align=left;fillOpacity=0;" parent="BFBuDWP6qZN-34i26mXP-4" vertex="1">
          <mxGeometry y="120" width="400" height="30" as="geometry" />
        </mxCell>
        <mxCell id="BFBuDWP6qZN-34i26mXP-31" value="" style="shape=partialRectangle;connectable=0;top=0;left=0;bottom=0;right=0;editable=1;overflow=hidden;strokeWidth=1;startSize=30;fontStyle=1;align=left;fillOpacity=0;" parent="BFBuDWP6qZN-34i26mXP-30" vertex="1">
          <mxGeometry width="30" height="30" as="geometry">
            <mxRectangle width="30" height="30" as="alternateBounds" />
          </mxGeometry>
        </mxCell>
        <mxCell id="BFBuDWP6qZN-34i26mXP-32" value="patch int" style="shape=partialRectangle;connectable=0;top=0;left=0;bottom=0;right=0;align=left;spacingLeft=6;overflow=hidden;strokeWidth=1;startSize=30;fontStyle=1;fillOpacity=0;" parent="BFBuDWP6qZN-34i26mXP-30" vertex="1">
          <mxGeometry x="30" width="370" height="30" as="geometry">
            <mxRectangle width="370" height="30" as="alternateBounds" />
          </mxGeometry>
        </mxCell>
        <mxCell id="BFBuDWP6qZN-34i26mXP-29" style="edgeStyle=orthogonalEdgeStyle;rounded=0;orthogonalLoop=1;jettySize=auto;html=1;exitX=0;exitY=0.5;exitDx=0;exitDy=0;entryX=0;entryY=0.5;entryDx=0;entryDy=0;strokeWidth=1;fontSize=12;startSize=30;fontStyle=1;align=left;fillOpacity=0;" parent="1" source="N7TVtfNPH1mrvqPcN6rD-199" target="N7TVtfNPH1mrvqPcN6rD-151" edge="1">
          <mxGeometry relative="1" as="geometry" />
        </mxCell>
        <mxCell id="QD3TEROpQWLYoImufcCq-64" style="edgeStyle=orthogonalEdgeStyle;rounded=0;orthogonalLoop=1;jettySize=auto;html=1;exitX=1;exitY=0.5;exitDx=0;exitDy=0;entryX=0;entryY=0.5;entryDx=0;entryDy=0;strokeWidth=1;fillOpacity=0;" parent="1" source="QD3TEROpQWLYoImufcCq-25" target="C-vyLk0tnHw3VtMMgP7b-3" edge="1">
          <mxGeometry relative="1" as="geometry" />
        </mxCell>
        <mxCell id="QD3TEROpQWLYoImufcCq-25" value="CALIBRATION" style="shape=table;startSize=30;container=1;collapsible=1;childLayout=tableLayout;fixedRows=1;rowLines=0;fontStyle=1;align=left;resizeLast=1;strokeWidth=1;fillOpacity=0;" parent="1" vertex="1">
          <mxGeometry x="720" y="80" width="400" height="216.9999999999999" as="geometry">
            <mxRectangle x="450" y="280" width="120" height="30" as="alternateBounds" />
          </mxGeometry>
        </mxCell>
        <mxCell id="QD3TEROpQWLYoImufcCq-26" value="" style="shape=partialRectangle;collapsible=0;dropTarget=0;pointerEvents=0;points=[[0,0.5],[1,0.5]];portConstraint=eastwest;top=0;left=0;right=0;bottom=1;strokeWidth=1;startSize=30;fontStyle=1;align=left;fillOpacity=0;" parent="QD3TEROpQWLYoImufcCq-25" vertex="1">
          <mxGeometry y="30" width="400" height="30" as="geometry" />
        </mxCell>
        <mxCell id="QD3TEROpQWLYoImufcCq-27" value="PK" style="shape=partialRectangle;overflow=hidden;connectable=0;top=0;left=0;bottom=0;right=0;fontStyle=1;strokeWidth=1;startSize=30;align=left;fillOpacity=0;" parent="QD3TEROpQWLYoImufcCq-26" vertex="1">
          <mxGeometry width="30" height="30" as="geometry">
            <mxRectangle width="30" height="30" as="alternateBounds" />
          </mxGeometry>
        </mxCell>
        <mxCell id="QD3TEROpQWLYoImufcCq-28" value="calibration_id int NOT NULL " style="shape=partialRectangle;overflow=hidden;connectable=0;top=0;left=0;bottom=0;right=0;align=left;spacingLeft=6;fontStyle=1;strokeWidth=1;startSize=30;fillOpacity=0;" parent="QD3TEROpQWLYoImufcCq-26" vertex="1">
          <mxGeometry x="30" width="370" height="30" as="geometry">
            <mxRectangle width="370" height="30" as="alternateBounds" />
          </mxGeometry>
        </mxCell>
        <mxCell id="QD3TEROpQWLYoImufcCq-29" value="" style="shape=partialRectangle;collapsible=0;dropTarget=0;pointerEvents=0;points=[[0,0.5],[1,0.5]];portConstraint=eastwest;top=0;left=0;right=0;bottom=0;strokeWidth=1;startSize=30;fontStyle=1;align=left;fillOpacity=0;" parent="QD3TEROpQWLYoImufcCq-25" vertex="1">
          <mxGeometry y="60" width="400" height="30" as="geometry" />
        </mxCell>
        <mxCell id="QD3TEROpQWLYoImufcCq-30" value="FK1" style="shape=partialRectangle;overflow=hidden;connectable=0;top=0;left=0;bottom=0;right=0;strokeWidth=1;startSize=30;fontStyle=1;align=left;fillOpacity=0;" parent="QD3TEROpQWLYoImufcCq-29" vertex="1">
          <mxGeometry width="30" height="30" as="geometry">
            <mxRectangle width="30" height="30" as="alternateBounds" />
          </mxGeometry>
        </mxCell>
        <mxCell id="QD3TEROpQWLYoImufcCq-31" value="model_major,model_minor char,char NOT NULL" style="shape=partialRectangle;overflow=hidden;connectable=0;top=0;left=0;bottom=0;right=0;align=left;spacingLeft=6;strokeWidth=1;startSize=30;fontStyle=1;fillOpacity=0;" parent="QD3TEROpQWLYoImufcCq-29" vertex="1">
          <mxGeometry x="30" width="370" height="30" as="geometry">
            <mxRectangle width="370" height="30" as="alternateBounds" />
          </mxGeometry>
        </mxCell>
        <mxCell id="QD3TEROpQWLYoImufcCq-32" value="" style="shape=tableRow;horizontal=0;startSize=0;swimlaneHead=0;swimlaneBody=0;collapsible=0;dropTarget=0;points=[[0,0.5],[1,0.5]];portConstraint=eastwest;top=0;left=0;right=0;bottom=0;strokeWidth=1;fontStyle=1;align=left;fillOpacity=0;" parent="QD3TEROpQWLYoImufcCq-25" vertex="1">
          <mxGeometry y="90" width="400" height="30" as="geometry" />
        </mxCell>
        <mxCell id="QD3TEROpQWLYoImufcCq-33" value="FK2" style="shape=partialRectangle;connectable=0;top=0;left=0;bottom=0;right=0;fontStyle=1;overflow=hidden;strokeWidth=1;startSize=30;align=left;fillOpacity=0;" parent="QD3TEROpQWLYoImufcCq-32" vertex="1">
          <mxGeometry width="30" height="30" as="geometry">
            <mxRectangle width="30" height="30" as="alternateBounds" />
          </mxGeometry>
        </mxCell>
        <mxCell id="QD3TEROpQWLYoImufcCq-34" value="segmentation_id int" style="shape=partialRectangle;connectable=0;top=0;left=0;bottom=0;right=0;align=left;spacingLeft=6;fontStyle=1;overflow=hidden;strokeWidth=1;startSize=30;fillOpacity=0;" parent="QD3TEROpQWLYoImufcCq-32" vertex="1">
          <mxGeometry x="30" width="370" height="30" as="geometry">
            <mxRectangle width="370" height="30" as="alternateBounds" />
          </mxGeometry>
        </mxCell>
        <mxCell id="QD3TEROpQWLYoImufcCq-35" value="" style="shape=tableRow;horizontal=0;startSize=0;swimlaneHead=0;swimlaneBody=0;collapsible=0;dropTarget=0;points=[[0,0.5],[1,0.5]];portConstraint=eastwest;top=0;left=0;right=0;bottom=0;strokeWidth=1;fontStyle=1;align=left;fillOpacity=0;" parent="QD3TEROpQWLYoImufcCq-25" vertex="1">
          <mxGeometry y="120" width="400" height="30" as="geometry" />
        </mxCell>
        <mxCell id="QD3TEROpQWLYoImufcCq-36" value="FK3" style="shape=partialRectangle;connectable=0;top=0;left=0;bottom=0;right=0;editable=1;overflow=hidden;strokeWidth=1;startSize=30;fontStyle=1;align=left;fillOpacity=0;" parent="QD3TEROpQWLYoImufcCq-35" vertex="1">
          <mxGeometry width="30" height="30" as="geometry">
            <mxRectangle width="30" height="30" as="alternateBounds" />
          </mxGeometry>
        </mxCell>
        <mxCell id="QD3TEROpQWLYoImufcCq-37" value="avg_frame_id int" style="shape=partialRectangle;connectable=0;top=0;left=0;bottom=0;right=0;align=left;spacingLeft=6;overflow=hidden;strokeWidth=1;startSize=30;fontStyle=1;fillOpacity=0;" parent="QD3TEROpQWLYoImufcCq-35" vertex="1">
          <mxGeometry x="30" width="370" height="30" as="geometry">
            <mxRectangle width="370" height="30" as="alternateBounds" />
          </mxGeometry>
        </mxCell>
        <mxCell id="QD3TEROpQWLYoImufcCq-38" value="" style="shape=partialRectangle;collapsible=0;dropTarget=0;pointerEvents=0;points=[[0,0.5],[1,0.5]];portConstraint=eastwest;top=0;left=0;right=0;bottom=0;strokeWidth=1;startSize=30;fontStyle=1;align=left;fillOpacity=0;" parent="QD3TEROpQWLYoImufcCq-25" vertex="1">
          <mxGeometry y="150" width="400" height="30" as="geometry" />
        </mxCell>
        <mxCell id="QD3TEROpQWLYoImufcCq-39" value="FK 4" style="shape=partialRectangle;overflow=hidden;connectable=0;top=0;left=0;bottom=0;right=0;strokeWidth=1;startSize=30;fontStyle=1;align=left;fillOpacity=0;" parent="QD3TEROpQWLYoImufcCq-38" vertex="1">
          <mxGeometry width="30" height="30" as="geometry">
            <mxRectangle width="30" height="30" as="alternateBounds" />
          </mxGeometry>
        </mxCell>
        <mxCell id="QD3TEROpQWLYoImufcCq-40" value="code_id_version major.minor.bugfix int,int,int NOT NULL" style="shape=partialRectangle;overflow=hidden;connectable=0;top=0;left=0;bottom=0;right=0;align=left;spacingLeft=6;strokeWidth=1;startSize=30;fontStyle=1;fillOpacity=0;" parent="QD3TEROpQWLYoImufcCq-38" vertex="1">
          <mxGeometry x="30" width="370" height="30" as="geometry">
            <mxRectangle width="370" height="30" as="alternateBounds" />
          </mxGeometry>
        </mxCell>
        <mxCell id="QD3TEROpQWLYoImufcCq-41" value="" style="shape=tableRow;horizontal=0;startSize=0;swimlaneHead=0;swimlaneBody=0;collapsible=0;dropTarget=0;points=[[0,0.5],[1,0.5]];portConstraint=eastwest;top=0;left=0;right=0;bottom=0;strokeWidth=1;fontStyle=1;align=left;fillOpacity=0;" parent="QD3TEROpQWLYoImufcCq-25" vertex="1">
          <mxGeometry y="180" width="400" height="30" as="geometry" />
        </mxCell>
        <mxCell id="QD3TEROpQWLYoImufcCq-42" value="" style="shape=partialRectangle;connectable=0;top=0;left=0;bottom=0;right=0;editable=1;overflow=hidden;strokeWidth=1;startSize=30;fontStyle=1;align=left;fillOpacity=0;" parent="QD3TEROpQWLYoImufcCq-41" vertex="1">
          <mxGeometry width="30" height="30" as="geometry">
            <mxRectangle width="30" height="30" as="alternateBounds" />
          </mxGeometry>
        </mxCell>
        <mxCell id="QD3TEROpQWLYoImufcCq-43" value="calibration_object float Matrix" style="shape=partialRectangle;connectable=0;top=0;left=0;bottom=0;right=0;align=left;spacingLeft=6;overflow=hidden;strokeWidth=1;startSize=30;fontStyle=1;fillOpacity=0;" parent="QD3TEROpQWLYoImufcCq-41" vertex="1">
          <mxGeometry x="30" width="370" height="30" as="geometry">
            <mxRectangle width="370" height="30" as="alternateBounds" />
          </mxGeometry>
        </mxCell>
        <mxCell id="QD3TEROpQWLYoImufcCq-44" style="edgeStyle=orthogonalEdgeStyle;rounded=0;orthogonalLoop=1;jettySize=auto;html=1;exitX=1;exitY=0.5;exitDx=0;exitDy=0;entryX=0;entryY=0.5;entryDx=0;entryDy=0;strokeWidth=1;fillOpacity=0;" parent="1" source="QD3TEROpQWLYoImufcCq-22" target="QD3TEROpQWLYoImufcCq-26" edge="1">
          <mxGeometry relative="1" as="geometry">
            <Array as="points">
              <mxPoint x="640" y="420" />
              <mxPoint x="660" y="420" />
              <mxPoint x="660" y="125" />
            </Array>
          </mxGeometry>
        </mxCell>
        <mxCell id="QD3TEROpQWLYoImufcCq-45" value="AVG_FRAME" style="shape=table;startSize=30;container=1;collapsible=1;childLayout=tableLayout;fixedRows=1;rowLines=0;fontStyle=1;align=left;resizeLast=1;strokeWidth=1;fillOpacity=0;" parent="1" vertex="1">
          <mxGeometry x="1160" y="331" width="360" height="157" as="geometry">
            <mxRectangle x="450" y="280" width="120" height="30" as="alternateBounds" />
          </mxGeometry>
        </mxCell>
        <mxCell id="QD3TEROpQWLYoImufcCq-46" value="" style="shape=partialRectangle;collapsible=0;dropTarget=0;pointerEvents=0;points=[[0,0.5],[1,0.5]];portConstraint=eastwest;top=0;left=0;right=0;bottom=1;strokeWidth=1;startSize=30;fontStyle=1;align=left;fillOpacity=0;" parent="QD3TEROpQWLYoImufcCq-45" vertex="1">
          <mxGeometry y="30" width="360" height="30" as="geometry" />
        </mxCell>
        <mxCell id="QD3TEROpQWLYoImufcCq-47" value="PK" style="shape=partialRectangle;overflow=hidden;connectable=0;top=0;left=0;bottom=0;right=0;fontStyle=1;strokeWidth=1;startSize=30;align=left;fillOpacity=0;" parent="QD3TEROpQWLYoImufcCq-46" vertex="1">
          <mxGeometry width="30" height="30" as="geometry">
            <mxRectangle width="30" height="30" as="alternateBounds" />
          </mxGeometry>
        </mxCell>
        <mxCell id="QD3TEROpQWLYoImufcCq-48" value="calibration_id int NOT NULL " style="shape=partialRectangle;overflow=hidden;connectable=0;top=0;left=0;bottom=0;right=0;align=left;spacingLeft=6;fontStyle=1;strokeWidth=1;startSize=30;fillOpacity=0;" parent="QD3TEROpQWLYoImufcCq-46" vertex="1">
          <mxGeometry x="30" width="330" height="30" as="geometry">
            <mxRectangle width="330" height="30" as="alternateBounds" />
          </mxGeometry>
        </mxCell>
        <mxCell id="QD3TEROpQWLYoImufcCq-49" value="" style="shape=partialRectangle;collapsible=0;dropTarget=0;pointerEvents=0;points=[[0,0.5],[1,0.5]];portConstraint=eastwest;top=0;left=0;right=0;bottom=0;strokeWidth=1;startSize=30;fontStyle=1;align=left;fillOpacity=0;" parent="QD3TEROpQWLYoImufcCq-45" vertex="1">
          <mxGeometry y="60" width="360" height="30" as="geometry" />
        </mxCell>
        <mxCell id="QD3TEROpQWLYoImufcCq-50" value="" style="shape=partialRectangle;overflow=hidden;connectable=0;top=0;left=0;bottom=0;right=0;strokeWidth=1;startSize=30;fontStyle=1;align=left;fillOpacity=0;" parent="QD3TEROpQWLYoImufcCq-49" vertex="1">
          <mxGeometry width="30" height="30" as="geometry">
            <mxRectangle width="30" height="30" as="alternateBounds" />
          </mxGeometry>
        </mxCell>
        <mxCell id="QD3TEROpQWLYoImufcCq-51" value="path string" style="shape=partialRectangle;overflow=hidden;connectable=0;top=0;left=0;bottom=0;right=0;align=left;spacingLeft=6;strokeWidth=1;startSize=30;fontStyle=1;fillOpacity=0;" parent="QD3TEROpQWLYoImufcCq-49" vertex="1">
          <mxGeometry x="30" width="330" height="30" as="geometry">
            <mxRectangle width="330" height="30" as="alternateBounds" />
          </mxGeometry>
        </mxCell>
        <mxCell id="QD3TEROpQWLYoImufcCq-52" value="" style="shape=tableRow;horizontal=0;startSize=0;swimlaneHead=0;swimlaneBody=0;collapsible=0;dropTarget=0;points=[[0,0.5],[1,0.5]];portConstraint=eastwest;top=0;left=0;right=0;bottom=0;strokeWidth=1;fontStyle=1;align=left;fillOpacity=0;" parent="QD3TEROpQWLYoImufcCq-45" vertex="1">
          <mxGeometry y="90" width="360" height="30" as="geometry" />
        </mxCell>
        <mxCell id="QD3TEROpQWLYoImufcCq-53" value="" style="shape=partialRectangle;connectable=0;top=0;left=0;bottom=0;right=0;fontStyle=1;overflow=hidden;strokeWidth=1;startSize=30;align=left;fillOpacity=0;" parent="QD3TEROpQWLYoImufcCq-52" vertex="1">
          <mxGeometry width="30" height="30" as="geometry">
            <mxRectangle width="30" height="30" as="alternateBounds" />
          </mxGeometry>
        </mxCell>
        <mxCell id="QD3TEROpQWLYoImufcCq-54" value="storage string" style="shape=partialRectangle;connectable=0;top=0;left=0;bottom=0;right=0;align=left;spacingLeft=6;fontStyle=1;overflow=hidden;strokeWidth=1;startSize=30;fillOpacity=0;" parent="QD3TEROpQWLYoImufcCq-52" vertex="1">
          <mxGeometry x="30" width="330" height="30" as="geometry">
            <mxRectangle width="330" height="30" as="alternateBounds" />
          </mxGeometry>
        </mxCell>
        <mxCell id="QD3TEROpQWLYoImufcCq-55" value="" style="shape=tableRow;horizontal=0;startSize=0;swimlaneHead=0;swimlaneBody=0;collapsible=0;dropTarget=0;points=[[0,0.5],[1,0.5]];portConstraint=eastwest;top=0;left=0;right=0;bottom=0;strokeWidth=1;fontStyle=1;align=left;fillOpacity=0;" parent="QD3TEROpQWLYoImufcCq-45" vertex="1">
          <mxGeometry y="120" width="360" height="30" as="geometry" />
        </mxCell>
        <mxCell id="QD3TEROpQWLYoImufcCq-56" value="" style="shape=partialRectangle;connectable=0;top=0;left=0;bottom=0;right=0;editable=1;overflow=hidden;strokeWidth=1;startSize=30;fontStyle=1;align=left;fillOpacity=0;" parent="QD3TEROpQWLYoImufcCq-55" vertex="1">
          <mxGeometry width="30" height="30" as="geometry">
            <mxRectangle width="30" height="30" as="alternateBounds" />
          </mxGeometry>
        </mxCell>
        <mxCell id="QD3TEROpQWLYoImufcCq-57" value="create_date date" style="shape=partialRectangle;connectable=0;top=0;left=0;bottom=0;right=0;align=left;spacingLeft=6;overflow=hidden;strokeWidth=1;startSize=30;fontStyle=1;fillOpacity=0;" parent="QD3TEROpQWLYoImufcCq-55" vertex="1">
          <mxGeometry x="30" width="330" height="30" as="geometry">
            <mxRectangle width="330" height="30" as="alternateBounds" />
          </mxGeometry>
        </mxCell>
        <mxCell id="QD3TEROpQWLYoImufcCq-65" style="edgeStyle=orthogonalEdgeStyle;rounded=0;orthogonalLoop=1;jettySize=auto;html=1;exitX=1;exitY=0.5;exitDx=0;exitDy=0;entryX=0;entryY=0.5;entryDx=0;entryDy=0;strokeWidth=1;fillOpacity=0;" parent="1" source="QD3TEROpQWLYoImufcCq-35" target="QD3TEROpQWLYoImufcCq-46" edge="1">
          <mxGeometry relative="1" as="geometry" />
        </mxCell>
        <mxCell id="QD3TEROpQWLYoImufcCq-92" style="edgeStyle=orthogonalEdgeStyle;rounded=0;orthogonalLoop=1;jettySize=auto;html=1;exitX=1;exitY=0.5;exitDx=0;exitDy=0;entryX=0;entryY=0.5;entryDx=0;entryDy=0;strokeWidth=1;fillOpacity=0;" parent="1" source="BFBuDWP6qZN-34i26mXP-14" target="BFBuDWP6qZN-34i26mXP-5" edge="1">
          <mxGeometry relative="1" as="geometry" />
        </mxCell>
        <mxCell id="QD3TEROpQWLYoImufcCq-98" style="edgeStyle=orthogonalEdgeStyle;rounded=0;orthogonalLoop=1;jettySize=auto;html=1;exitX=0;exitY=0.5;exitDx=0;exitDy=0;entryX=1;entryY=0.5;entryDx=0;entryDy=0;strokeWidth=1;fillOpacity=0;" parent="1" source="QD3TEROpQWLYoImufcCq-29" target="N7TVtfNPH1mrvqPcN6rD-193" edge="1">
          <mxGeometry relative="1" as="geometry">
            <Array as="points">
              <mxPoint x="680" y="155" />
              <mxPoint x="680" y="645" />
            </Array>
          </mxGeometry>
        </mxCell>
        <mxCell id="QD3TEROpQWLYoImufcCq-100" style="edgeStyle=orthogonalEdgeStyle;rounded=0;orthogonalLoop=1;jettySize=auto;html=1;exitX=0;exitY=0.5;exitDx=0;exitDy=0;entryX=0;entryY=0.5;entryDx=0;entryDy=0;strokeWidth=1;fillOpacity=0;" parent="1" source="QD3TEROpQWLYoImufcCq-38" target="BFBuDWP6qZN-34i26mXP-5" edge="1">
          <mxGeometry relative="1" as="geometry" />
        </mxCell>
        <mxCell id="uGHviyEp8HrkVmWR_QCQ-19" style="edgeStyle=orthogonalEdgeStyle;rounded=0;orthogonalLoop=1;jettySize=auto;html=1;exitX=1;exitY=0.5;exitDx=0;exitDy=0;entryX=0;entryY=0.5;entryDx=0;entryDy=0;startArrow=classic;startFill=1;" edge="1" parent="1" target="uGHviyEp8HrkVmWR_QCQ-2">
          <mxGeometry relative="1" as="geometry">
            <mxPoint x="-550" y="180" as="sourcePoint" />
          </mxGeometry>
        </mxCell>
        <mxCell id="uGHviyEp8HrkVmWR_QCQ-37" style="edgeStyle=orthogonalEdgeStyle;rounded=0;orthogonalLoop=1;jettySize=auto;html=1;exitX=1;exitY=0.5;exitDx=0;exitDy=0;entryX=-0.013;entryY=0.027;entryDx=0;entryDy=0;entryPerimeter=0;startArrow=classic;startFill=1;" edge="1" parent="1" source="uGHviyEp8HrkVmWR_QCQ-2" target="uGHviyEp8HrkVmWR_QCQ-6">
          <mxGeometry relative="1" as="geometry" />
        </mxCell>
        <mxCell id="uGHviyEp8HrkVmWR_QCQ-2" value="MiddleLayer&lt;br&gt;(Adaptator)" style="rounded=0;whiteSpace=wrap;html=1;" vertex="1" parent="1">
          <mxGeometry x="-520" y="150" width="120" height="60" as="geometry" />
        </mxCell>
        <mxCell id="uGHviyEp8HrkVmWR_QCQ-5" value="DAI" style="swimlane;fontStyle=0;childLayout=stackLayout;horizontal=1;startSize=30;horizontalStack=0;resizeParent=1;resizeParentMax=0;resizeLast=0;collapsible=1;marginBottom=0;whiteSpace=wrap;html=1;" vertex="1" parent="1">
          <mxGeometry x="-370" y="150" width="140" height="120" as="geometry" />
        </mxCell>
        <mxCell id="uGHviyEp8HrkVmWR_QCQ-6" value="- COMPUTE ENGINE&amp;nbsp; &amp;nbsp; &amp;nbsp; &amp;nbsp;DETECTION" style="text;strokeColor=none;fillColor=none;align=left;verticalAlign=middle;spacingLeft=4;spacingRight=4;overflow=hidden;points=[[0,0.5],[1,0.5]];portConstraint=eastwest;rotatable=0;whiteSpace=wrap;html=1;" vertex="1" parent="uGHviyEp8HrkVmWR_QCQ-5">
          <mxGeometry y="30" width="140" height="30" as="geometry" />
        </mxCell>
        <mxCell id="uGHviyEp8HrkVmWR_QCQ-41" value="-&amp;nbsp; COMPUTE ENGINE&amp;nbsp; &amp;nbsp; &amp;nbsp; &amp;nbsp;SEGMENTATION" style="text;strokeColor=none;fillColor=none;align=left;verticalAlign=middle;spacingLeft=4;spacingRight=4;overflow=hidden;points=[[0,0.5],[1,0.5]];portConstraint=eastwest;rotatable=0;whiteSpace=wrap;html=1;" vertex="1" parent="uGHviyEp8HrkVmWR_QCQ-5">
          <mxGeometry y="60" width="140" height="30" as="geometry" />
        </mxCell>
        <mxCell id="uGHviyEp8HrkVmWR_QCQ-36" value="-&amp;nbsp; LOGIC" style="text;strokeColor=none;fillColor=none;align=left;verticalAlign=middle;spacingLeft=4;spacingRight=4;overflow=hidden;points=[[0,0.5],[1,0.5]];portConstraint=eastwest;rotatable=0;whiteSpace=wrap;html=1;" vertex="1" parent="uGHviyEp8HrkVmWR_QCQ-5">
          <mxGeometry y="90" width="140" height="30" as="geometry" />
        </mxCell>
        <mxCell id="uGHviyEp8HrkVmWR_QCQ-13" value="Tunnel Watch V1.6" style="text;html=1;align=center;verticalAlign=middle;resizable=0;points=[];autosize=1;strokeColor=none;fillColor=none;" vertex="1" parent="1">
          <mxGeometry x="-820" y="95" width="120" height="30" as="geometry" />
        </mxCell>
        <mxCell id="uGHviyEp8HrkVmWR_QCQ-15" value="Kafka Broker" style="rounded=0;whiteSpace=wrap;html=1;" vertex="1" parent="1">
          <mxGeometry x="-520" y="310" width="120" height="60" as="geometry" />
        </mxCell>
        <mxCell id="uGHviyEp8HrkVmWR_QCQ-16" value="DAI" style="swimlane;fontStyle=0;childLayout=stackLayout;horizontal=1;startSize=30;horizontalStack=0;resizeParent=1;resizeParentMax=0;resizeLast=0;collapsible=1;marginBottom=0;whiteSpace=wrap;html=1;" vertex="1" parent="1">
          <mxGeometry x="-530" y="486" width="140" height="60" as="geometry" />
        </mxCell>
        <mxCell id="uGHviyEp8HrkVmWR_QCQ-17" value="- LOGIC" style="text;strokeColor=none;fillColor=none;align=left;verticalAlign=middle;spacingLeft=4;spacingRight=4;overflow=hidden;points=[[0,0.5],[1,0.5]];portConstraint=eastwest;rotatable=0;whiteSpace=wrap;html=1;" vertex="1" parent="uGHviyEp8HrkVmWR_QCQ-16">
          <mxGeometry y="30" width="140" height="30" as="geometry" />
        </mxCell>
        <mxCell id="uGHviyEp8HrkVmWR_QCQ-18" value="Tunnel Watch V2.0" style="text;html=1;align=center;verticalAlign=middle;resizable=0;points=[];autosize=1;strokeColor=none;fillColor=none;" vertex="1" parent="1">
          <mxGeometry x="-820" y="280" width="120" height="30" as="geometry" />
        </mxCell>
        <mxCell id="uGHviyEp8HrkVmWR_QCQ-28" style="rounded=0;orthogonalLoop=1;jettySize=auto;html=1;exitX=0.5;exitY=0;exitDx=0;exitDy=0;entryX=0.5;entryY=1;entryDx=0;entryDy=0;startArrow=classic;startFill=1;" edge="1" parent="1" source="uGHviyEp8HrkVmWR_QCQ-23" target="uGHviyEp8HrkVmWR_QCQ-15">
          <mxGeometry relative="1" as="geometry" />
        </mxCell>
        <mxCell id="uGHviyEp8HrkVmWR_QCQ-23" value="MicroService Wrapper API" style="swimlane;fontStyle=0;childLayout=stackLayout;horizontal=1;startSize=30;horizontalStack=0;resizeParent=1;resizeParentMax=0;resizeLast=0;collapsible=1;marginBottom=0;whiteSpace=wrap;html=1;" vertex="1" parent="1">
          <mxGeometry x="-550" y="431" width="180" height="135" as="geometry" />
        </mxCell>
        <mxCell id="uGHviyEp8HrkVmWR_QCQ-26" style="rounded=0;orthogonalLoop=1;jettySize=auto;html=1;exitX=0.5;exitY=0;exitDx=0;exitDy=0;entryX=0.5;entryY=1;entryDx=0;entryDy=0;startArrow=classic;startFill=1;" edge="1" parent="1" source="uGHviyEp8HrkVmWR_QCQ-25" target="uGHviyEp8HrkVmWR_QCQ-15">
          <mxGeometry relative="1" as="geometry" />
        </mxCell>
        <mxCell id="uGHviyEp8HrkVmWR_QCQ-25" value="MicroService Wrapper API" style="swimlane;fontStyle=0;childLayout=stackLayout;horizontal=1;startSize=30;horizontalStack=0;resizeParent=1;resizeParentMax=0;resizeLast=0;collapsible=1;marginBottom=0;whiteSpace=wrap;html=1;" vertex="1" parent="1">
          <mxGeometry x="-780" y="430" width="180" height="135" as="geometry" />
        </mxCell>
        <mxCell id="uGHviyEp8HrkVmWR_QCQ-33" value="COMPUTE ENGINE" style="swimlane;fontStyle=0;childLayout=stackLayout;horizontal=1;startSize=30;horizontalStack=0;resizeParent=1;resizeParentMax=0;resizeLast=0;collapsible=1;marginBottom=0;whiteSpace=wrap;html=1;" vertex="1" parent="1">
          <mxGeometry x="-300" y="489" width="140" height="120" as="geometry" />
        </mxCell>
        <mxCell id="uGHviyEp8HrkVmWR_QCQ-34" value="- DETECTION" style="text;strokeColor=none;fillColor=none;align=left;verticalAlign=middle;spacingLeft=4;spacingRight=4;overflow=hidden;points=[[0,0.5],[1,0.5]];portConstraint=eastwest;rotatable=0;whiteSpace=wrap;html=1;" vertex="1" parent="uGHviyEp8HrkVmWR_QCQ-33">
          <mxGeometry y="30" width="140" height="30" as="geometry" />
        </mxCell>
        <mxCell id="uGHviyEp8HrkVmWR_QCQ-42" value="- SEGMENTATION" style="text;strokeColor=none;fillColor=none;align=left;verticalAlign=middle;spacingLeft=4;spacingRight=4;overflow=hidden;points=[[0,0.5],[1,0.5]];portConstraint=eastwest;rotatable=0;whiteSpace=wrap;html=1;" vertex="1" parent="uGHviyEp8HrkVmWR_QCQ-33">
          <mxGeometry y="60" width="140" height="30" as="geometry" />
        </mxCell>
        <mxCell id="uGHviyEp8HrkVmWR_QCQ-43" value="- ...." style="text;strokeColor=none;fillColor=none;align=left;verticalAlign=middle;spacingLeft=4;spacingRight=4;overflow=hidden;points=[[0,0.5],[1,0.5]];portConstraint=eastwest;rotatable=0;whiteSpace=wrap;html=1;" vertex="1" parent="uGHviyEp8HrkVmWR_QCQ-33">
          <mxGeometry y="90" width="140" height="30" as="geometry" />
        </mxCell>
        <mxCell id="uGHviyEp8HrkVmWR_QCQ-38" style="rounded=0;orthogonalLoop=1;jettySize=auto;html=1;exitX=0.5;exitY=0;exitDx=0;exitDy=0;entryX=0.5;entryY=1;entryDx=0;entryDy=0;startArrow=classic;startFill=1;" edge="1" parent="1" source="uGHviyEp8HrkVmWR_QCQ-35" target="uGHviyEp8HrkVmWR_QCQ-15">
          <mxGeometry relative="1" as="geometry" />
        </mxCell>
        <mxCell id="uGHviyEp8HrkVmWR_QCQ-35" value="MicroService Wrapper API" style="swimlane;fontStyle=0;childLayout=stackLayout;horizontal=1;startSize=30;horizontalStack=0;resizeParent=1;resizeParentMax=0;resizeLast=0;collapsible=1;marginBottom=0;whiteSpace=wrap;html=1;" vertex="1" parent="1">
          <mxGeometry x="-320" y="430" width="180" height="210" as="geometry" />
        </mxCell>
        <mxCell id="uGHviyEp8HrkVmWR_QCQ-39" value="DB" style="shape=datastore;whiteSpace=wrap;html=1;fillColor=none;" vertex="1" parent="1">
          <mxGeometry x="-610" y="150" width="60" height="60" as="geometry" />
        </mxCell>
        <mxCell id="uGHviyEp8HrkVmWR_QCQ-40" value="DB" style="shape=datastore;whiteSpace=wrap;html=1;fillColor=none;" vertex="1" parent="1">
          <mxGeometry x="-720" y="477" width="60" height="60" as="geometry" />
        </mxCell>
      </root>
    </mxGraphModel>
  </diagram>
</mxfile>
